<svg width="28" height="28" viewBox="0 0 28 28" fill="none" xmlns="http://www.w3.org/2000/svg">
<rect width="28" height="28" rx="3" fill="#1A1A1A"/>
<path d="M7.47881 21.69C7.02881 21.69 6.65881 21.545 6.36881 21.255C6.08881 20.975 5.94881 20.61 5.94881 20.16V15.51C5.94881 15.22 5.81381 15.075 5.54381 15.075H3.81881V13.275H5.54381C5.81381 13.275 5.94881 13.13 5.94881 12.84V8.19C5.94881 7.74 6.08881 7.375 6.36881 7.095C6.65881 6.805 7.02881 6.66 7.47881 6.66H10.0288V8.28H8.18381C7.91381 8.28 7.77881 8.43 7.77881 8.73V12.84C7.77881 13.18 7.66881 13.465 7.44881 13.695C7.23881 13.925 6.95881 14.04 6.60881 14.04H6.36881V14.31H6.60881C6.95881 14.31 7.23881 14.425 7.44881 14.655C7.66881 14.885 7.77881 15.17 7.77881 15.51V19.62C7.77881 19.92 7.91381 20.07 8.18381 20.07H10.0288V21.69H7.47881ZM13.0411 14.55V7.5H14.9611V14.55H13.0411ZM14.0011 18.21C13.6011 18.21 13.2611 18.08 12.9811 17.82C12.7111 17.55 12.5761 17.205 12.5761 16.785C12.5761 16.365 12.7111 16.025 12.9811 15.765C13.2611 15.495 13.6011 15.36 14.0011 15.36C14.4111 15.36 14.7511 15.495 15.0211 15.765C15.2911 16.025 15.4261 16.365 15.4261 16.785C15.4261 17.205 15.2911 17.55 15.0211 17.82C14.7511 18.08 14.4111 18.21 14.0011 18.21ZM17.9739 21.69V20.07H19.8189C20.0889 20.07 20.2239 19.92 20.2239 19.62V15.51C20.2239 15.17 20.3289 14.885 20.5389 14.655C20.7589 14.425 21.0439 14.31 21.3939 14.31H21.6339V14.04H21.3939C21.0439 14.04 20.7589 13.925 20.5389 13.695C20.3289 13.465 20.2239 13.18 20.2239 12.84V8.73C20.2239 8.43 20.0889 8.28 19.8189 8.28H17.9739V6.66H20.5239C20.9739 6.66 21.3389 6.805 21.6189 7.095C21.9089 7.375 22.0539 7.74 22.0539 8.19V12.84C22.0539 13.13 22.1889 13.275 22.4589 13.275H24.1839V15.075H22.4589C22.1889 15.075 22.0539 15.22 22.0539 15.51V20.16C22.0539 20.61 21.9089 20.975 21.6189 21.255C21.3389 21.545 20.9739 21.69 20.5239 21.69H17.9739Z" fill="#D9D9D9"/>
</svg>
